<?xml version="1.0" encoding="UTF-8"?>
<svg xmlns="http://www.w3.org/2000/svg" xmlns:xlink="http://www.w3.org/1999/xlink" width="240pt" height="240pt" viewBox="0 0 240 240" version="1.1">
<g id="surface5820335">
<path style=" stroke:none;fill-rule:nonzero;fill:rgb(100%,100%,100%);fill-opacity:1;" d="M 86.894531 15 L 72.171875 29.722656 C 66.515625 28.945312 60.878906 29.722656 56 31.992188 C 49.351562 35.089844 43.570312 39.675781 39.566406 44.925781 L 27.554688 60.660156 L 35.875 68.980469 L 29.589844 81.5625 L 49.894531 169.585938 C 52.132812 179.269531 58.125 187.679688 66.5625 192.949219 L 112.046875 221.382812 C 116.898438 224.421875 123.101562 224.421875 127.953125 221.382812 L 173.4375 192.949219 C 181.867188 187.675781 187.867188 179.273438 190.105469 169.585938 L 210.410156 81.5625 L 204.125 68.980469 L 212.445312 60.660156 L 200.433594 44.925781 C 196.429688 39.675781 190.648438 35.089844 184 31.992188 C 179.121094 29.722656 173.484375 28.945312 167.828125 29.722656 L 153.105469 15 Z M 120 46.742188 C 122.648438 46.742188 125.285156 47.167969 127.835938 48.019531 L 135.382812 50.535156 C 139.996094 52.074219 144.988281 52.074219 149.605469 50.535156 L 149.621094 50.535156 L 157.660156 47.839844 C 160.609375 46.859375 163.800781 47.769531 165.792969 50.15625 L 185.84375 74.222656 C 189.933594 79.132812 189.992188 86.125 186.007812 91.097656 L 169.191406 112.117188 C 166.015625 116.085938 165.070312 121.414062 166.671875 126.226562 L 168.121094 130.5625 C 170.050781 136.351562 168.300781 142.679688 163.683594 146.660156 L 163.667969 146.675781 L 154.714844 154.527344 L 131.425781 140.390625 L 131.339844 140.347656 C 130.152344 139.671875 128.765625 139.792969 127.5 139.351562 L 127.5 125.40625 L 151.464844 117.421875 L 144.097656 87.964844 L 166.816406 82.28125 L 163.183594 67.71875 L 125.902344 77.035156 L 133.535156 107.578125 L 120 112.089844 L 106.464844 107.578125 L 114.097656 77.035156 L 76.816406 67.71875 L 73.183594 82.28125 L 95.902344 87.964844 L 88.535156 117.421875 L 112.5 125.40625 L 112.5 139.496094 C 111.21875 139.972656 109.8125 139.878906 108.617188 140.597656 L 85.339844 154.554688 L 79.964844 149.824219 L 79.9375 149.796875 C 74.164062 144.820312 73.039062 136.464844 77.269531 130.121094 L 77.636719 129.566406 L 77.652344 129.550781 C 81.746094 123.402344 80.707031 115.03125 75.207031 110.082031 L 53.949219 90.9375 C 50.09375 85.949219 50.148438 79.074219 54.214844 74.222656 L 74.941406 49.496094 C 77.066406 46.964844 80.480469 46.113281 83.539062 47.375 L 89.503906 49.820312 C 94.484375 51.867188 100.042969 52.058594 105.160156 50.347656 L 112.148438 48.019531 C 114.699219 47.167969 117.351562 46.742188 120 46.742188 Z M 52.71875 52.660156 L 50.640625 55.136719 L 51.488281 54.023438 C 51.816406 53.59375 52.292969 53.121094 52.71875 52.660156 Z M 60.042969 142.382812 C 60.050781 142.441406 60.066406 142.5 60.074219 142.558594 L 60 142.5 Z M 120.101562 152.386719 C 121.410156 152.371094 122.726562 152.695312 123.910156 153.367188 L 142.894531 164.910156 L 124.953125 180.660156 C 122.078125 183.179688 117.925781 183.1875 115.046875 180.660156 L 97.164062 164.941406 L 116.324219 153.457031 C 117.488281 152.757812 118.792969 152.402344 120.101562 152.386719 Z M 120.101562 152.386719 "/>
</g>
</svg>
